<svg xmlns="http://www.w3.org/2000/svg" width="14.71" height="16" viewBox="0 0 14.71 16" fill="currentColor"><path d="M16.892,5.2H13.624V4.4A2.426,2.426,0,0,0,11.172,2H9.538A2.426,2.426,0,0,0,7.086,4.4v.8H3.817a.8.8,0,1,0,0,1.6h.817v8.8A2.426,2.426,0,0,0,7.086,18h6.538a2.426,2.426,0,0,0,2.452-2.4V6.8h.817a.8.8,0,1,0,0-1.6ZM8.72,4.4a.809.809,0,0,1,.817-.8h1.634a.809.809,0,0,1,.817.8v.8H8.72Zm5.72,11.2a.809.809,0,0,1-.817.8H7.086a.809.809,0,0,1-.817-.8V6.8h8.172Z" transform="translate(-3 -2)"/></svg>